<mxfile host="app.diagrams.net" modified="2022-09-13T04:16:31.072Z" agent="5.0 (Windows NT 10.0; Win64; x64) AppleWebKit/537.36 (KHTML, like Gecko) Chrome/105.0.0.0 Safari/537.36 Edg/105.0.1343.27" etag="ri85sW57a7c4ph2nUWeo" version="20.3.0" type="github">
  <diagram id="mfU2BSazRaiEXbV0FyCT" name="Page-1">
    <mxGraphModel dx="1422" dy="754" grid="1" gridSize="10" guides="1" tooltips="1" connect="1" arrows="1" fold="1" page="1" pageScale="1" pageWidth="1169" pageHeight="827" math="0" shadow="0">
      <root>
        <mxCell id="0" />
        <mxCell id="1" parent="0" />
        <mxCell id="yQb2XTzOwnP5ZNW3T5DW-7" style="rounded=0;orthogonalLoop=1;jettySize=auto;html=1;exitX=0;exitY=0.5;exitDx=0;exitDy=0;entryX=1;entryY=0.5;entryDx=0;entryDy=0;fontSize=24;edgeStyle=orthogonalEdgeStyle;shape=link;" parent="1" source="yQb2XTzOwnP5ZNW3T5DW-5" target="yQb2XTzOwnP5ZNW3T5DW-6" edge="1">
          <mxGeometry relative="1" as="geometry" />
        </mxCell>
        <mxCell id="yQb2XTzOwnP5ZNW3T5DW-20" style="edgeStyle=orthogonalEdgeStyle;shape=link;rounded=0;orthogonalLoop=1;jettySize=auto;html=1;exitX=1;exitY=0.5;exitDx=0;exitDy=0;entryX=0;entryY=0.5;entryDx=0;entryDy=0;fontSize=24;" parent="1" source="yQb2XTzOwnP5ZNW3T5DW-5" target="yQb2XTzOwnP5ZNW3T5DW-18" edge="1">
          <mxGeometry relative="1" as="geometry" />
        </mxCell>
        <mxCell id="yQb2XTzOwnP5ZNW3T5DW-5" value="&lt;font style=&quot;font-size: 24px;&quot;&gt;+&amp;nbsp; &amp;nbsp; &amp;nbsp; &amp;nbsp; &amp;nbsp; -&lt;/font&gt;" style="rounded=1;whiteSpace=wrap;html=1;fontSize=18;rotation=90;" parent="1" vertex="1">
          <mxGeometry y="80" width="120" height="40" as="geometry" />
        </mxCell>
        <mxCell id="yQb2XTzOwnP5ZNW3T5DW-9" style="edgeStyle=orthogonalEdgeStyle;shape=link;rounded=0;orthogonalLoop=1;jettySize=auto;html=1;exitX=0;exitY=0.5;exitDx=0;exitDy=0;entryX=1;entryY=0.5;entryDx=0;entryDy=0;fontSize=24;" parent="1" source="yQb2XTzOwnP5ZNW3T5DW-6" target="yQb2XTzOwnP5ZNW3T5DW-8" edge="1">
          <mxGeometry relative="1" as="geometry" />
        </mxCell>
        <mxCell id="yQb2XTzOwnP5ZNW3T5DW-6" value="&lt;font style=&quot;font-size: 24px;&quot;&gt;+&amp;nbsp; &amp;nbsp; &amp;nbsp; &amp;nbsp; &amp;nbsp; -&lt;/font&gt;" style="rounded=1;whiteSpace=wrap;html=1;fontSize=18;rotation=90;" parent="1" vertex="1">
          <mxGeometry x="80" y="80" width="120" height="40" as="geometry" />
        </mxCell>
        <mxCell id="yQb2XTzOwnP5ZNW3T5DW-11" style="edgeStyle=orthogonalEdgeStyle;shape=link;rounded=0;orthogonalLoop=1;jettySize=auto;html=1;exitX=0;exitY=0.5;exitDx=0;exitDy=0;entryX=1;entryY=0.5;entryDx=0;entryDy=0;fontSize=24;" parent="1" source="yQb2XTzOwnP5ZNW3T5DW-8" target="yQb2XTzOwnP5ZNW3T5DW-10" edge="1">
          <mxGeometry relative="1" as="geometry" />
        </mxCell>
        <mxCell id="yQb2XTzOwnP5ZNW3T5DW-8" value="&lt;font style=&quot;font-size: 24px;&quot;&gt;+&amp;nbsp; &amp;nbsp; &amp;nbsp; &amp;nbsp; &amp;nbsp; -&lt;/font&gt;" style="rounded=1;whiteSpace=wrap;html=1;fontSize=18;rotation=90;" parent="1" vertex="1">
          <mxGeometry x="160" y="80" width="120" height="40" as="geometry" />
        </mxCell>
        <mxCell id="XG2Kc8SGQfTMG4fcbG-y-9" style="edgeStyle=orthogonalEdgeStyle;curved=1;rounded=0;orthogonalLoop=1;jettySize=auto;html=1;exitX=0;exitY=0.5;exitDx=0;exitDy=0;entryX=0;entryY=0;entryDx=0;entryDy=0;fontSize=18;elbow=vertical;" edge="1" parent="1" source="yQb2XTzOwnP5ZNW3T5DW-10" target="yQb2XTzOwnP5ZNW3T5DW-78">
          <mxGeometry relative="1" as="geometry" />
        </mxCell>
        <mxCell id="XG2Kc8SGQfTMG4fcbG-y-10" value="+" style="edgeLabel;html=1;align=center;verticalAlign=middle;resizable=0;points=[];fontSize=18;" vertex="1" connectable="0" parent="XG2Kc8SGQfTMG4fcbG-y-9">
          <mxGeometry x="0.8809" y="1" relative="1" as="geometry">
            <mxPoint x="-16" y="14" as="offset" />
          </mxGeometry>
        </mxCell>
        <mxCell id="yQb2XTzOwnP5ZNW3T5DW-10" value="&lt;font style=&quot;font-size: 24px;&quot;&gt;+&amp;nbsp; &amp;nbsp; &amp;nbsp; &amp;nbsp; &amp;nbsp; -&lt;/font&gt;" style="rounded=1;whiteSpace=wrap;html=1;fontSize=18;rotation=90;" parent="1" vertex="1">
          <mxGeometry x="240" y="80" width="120" height="40" as="geometry" />
        </mxCell>
        <mxCell id="yQb2XTzOwnP5ZNW3T5DW-32" style="edgeStyle=orthogonalEdgeStyle;shape=link;rounded=0;orthogonalLoop=1;jettySize=auto;html=1;exitX=1;exitY=0.5;exitDx=0;exitDy=0;fontSize=24;" parent="1" source="yQb2XTzOwnP5ZNW3T5DW-15" target="yQb2XTzOwnP5ZNW3T5DW-27" edge="1">
          <mxGeometry relative="1" as="geometry" />
        </mxCell>
        <mxCell id="yQb2XTzOwnP5ZNW3T5DW-15" value="&lt;font style=&quot;font-size: 24px;&quot;&gt;+&amp;nbsp; &amp;nbsp; &amp;nbsp; &amp;nbsp; &amp;nbsp; -&lt;/font&gt;" style="rounded=1;whiteSpace=wrap;html=1;fontSize=18;rotation=-90;" parent="1" vertex="1">
          <mxGeometry x="240" y="280" width="120" height="40" as="geometry" />
        </mxCell>
        <mxCell id="yQb2XTzOwnP5ZNW3T5DW-23" style="edgeStyle=orthogonalEdgeStyle;shape=link;rounded=0;orthogonalLoop=1;jettySize=auto;html=1;exitX=1;exitY=0.5;exitDx=0;exitDy=0;entryX=0;entryY=0.5;entryDx=0;entryDy=0;fontSize=24;" parent="1" source="yQb2XTzOwnP5ZNW3T5DW-16" target="yQb2XTzOwnP5ZNW3T5DW-15" edge="1">
          <mxGeometry relative="1" as="geometry" />
        </mxCell>
        <mxCell id="yQb2XTzOwnP5ZNW3T5DW-16" value="&lt;font style=&quot;font-size: 24px;&quot;&gt;+&amp;nbsp; &amp;nbsp; &amp;nbsp; &amp;nbsp; &amp;nbsp; -&lt;/font&gt;" style="rounded=1;whiteSpace=wrap;html=1;fontSize=18;rotation=-90;" parent="1" vertex="1">
          <mxGeometry x="160" y="280" width="120" height="40" as="geometry" />
        </mxCell>
        <mxCell id="yQb2XTzOwnP5ZNW3T5DW-22" style="edgeStyle=orthogonalEdgeStyle;shape=link;rounded=0;orthogonalLoop=1;jettySize=auto;html=1;exitX=1;exitY=0.5;exitDx=0;exitDy=0;entryX=0;entryY=0.5;entryDx=0;entryDy=0;fontSize=24;" parent="1" source="yQb2XTzOwnP5ZNW3T5DW-17" target="yQb2XTzOwnP5ZNW3T5DW-16" edge="1">
          <mxGeometry relative="1" as="geometry" />
        </mxCell>
        <mxCell id="yQb2XTzOwnP5ZNW3T5DW-17" value="&lt;font style=&quot;font-size: 24px;&quot;&gt;+&amp;nbsp; &amp;nbsp; &amp;nbsp; &amp;nbsp; &amp;nbsp; -&lt;/font&gt;" style="rounded=1;whiteSpace=wrap;html=1;fontSize=18;rotation=-90;" parent="1" vertex="1">
          <mxGeometry x="80" y="280" width="120" height="40" as="geometry" />
        </mxCell>
        <mxCell id="yQb2XTzOwnP5ZNW3T5DW-21" style="edgeStyle=orthogonalEdgeStyle;shape=link;rounded=0;orthogonalLoop=1;jettySize=auto;html=1;exitX=1;exitY=0.5;exitDx=0;exitDy=0;entryX=0;entryY=0.5;entryDx=0;entryDy=0;fontSize=24;" parent="1" source="yQb2XTzOwnP5ZNW3T5DW-18" target="yQb2XTzOwnP5ZNW3T5DW-17" edge="1">
          <mxGeometry relative="1" as="geometry" />
        </mxCell>
        <mxCell id="yQb2XTzOwnP5ZNW3T5DW-18" value="&lt;font style=&quot;font-size: 24px;&quot;&gt;+&amp;nbsp; &amp;nbsp; &amp;nbsp; &amp;nbsp; &amp;nbsp; -&lt;/font&gt;" style="rounded=1;whiteSpace=wrap;html=1;fontSize=18;rotation=-90;" parent="1" vertex="1">
          <mxGeometry y="280" width="120" height="40" as="geometry" />
        </mxCell>
        <mxCell id="yQb2XTzOwnP5ZNW3T5DW-36" style="edgeStyle=orthogonalEdgeStyle;shape=link;rounded=0;orthogonalLoop=1;jettySize=auto;html=1;exitX=1;exitY=0.5;exitDx=0;exitDy=0;entryX=0;entryY=0.5;entryDx=0;entryDy=0;fontSize=24;" parent="1" source="yQb2XTzOwnP5ZNW3T5DW-24" target="yQb2XTzOwnP5ZNW3T5DW-31" edge="1">
          <mxGeometry relative="1" as="geometry" />
        </mxCell>
        <mxCell id="yQb2XTzOwnP5ZNW3T5DW-24" value="&lt;font style=&quot;font-size: 24px;&quot;&gt;+&amp;nbsp; &amp;nbsp; &amp;nbsp; &amp;nbsp; &amp;nbsp; -&lt;/font&gt;" style="rounded=1;whiteSpace=wrap;html=1;fontSize=18;rotation=90;" parent="1" vertex="1">
          <mxGeometry y="480" width="120" height="40" as="geometry" />
        </mxCell>
        <mxCell id="yQb2XTzOwnP5ZNW3T5DW-35" style="edgeStyle=orthogonalEdgeStyle;shape=link;rounded=0;orthogonalLoop=1;jettySize=auto;html=1;exitX=1;exitY=0.5;exitDx=0;exitDy=0;entryX=0;entryY=0.5;entryDx=0;entryDy=0;fontSize=24;" parent="1" source="yQb2XTzOwnP5ZNW3T5DW-25" target="yQb2XTzOwnP5ZNW3T5DW-24" edge="1">
          <mxGeometry relative="1" as="geometry" />
        </mxCell>
        <mxCell id="yQb2XTzOwnP5ZNW3T5DW-25" value="&lt;font style=&quot;font-size: 24px;&quot;&gt;+&amp;nbsp; &amp;nbsp; &amp;nbsp; &amp;nbsp; &amp;nbsp; -&lt;/font&gt;" style="rounded=1;whiteSpace=wrap;html=1;fontSize=18;rotation=90;" parent="1" vertex="1">
          <mxGeometry x="80" y="480" width="120" height="40" as="geometry" />
        </mxCell>
        <mxCell id="yQb2XTzOwnP5ZNW3T5DW-34" style="edgeStyle=orthogonalEdgeStyle;shape=link;rounded=0;orthogonalLoop=1;jettySize=auto;html=1;exitX=1;exitY=0.5;exitDx=0;exitDy=0;entryX=0;entryY=0.5;entryDx=0;entryDy=0;fontSize=24;" parent="1" source="yQb2XTzOwnP5ZNW3T5DW-26" target="yQb2XTzOwnP5ZNW3T5DW-25" edge="1">
          <mxGeometry relative="1" as="geometry" />
        </mxCell>
        <mxCell id="yQb2XTzOwnP5ZNW3T5DW-26" value="&lt;font style=&quot;font-size: 24px;&quot;&gt;+&amp;nbsp; &amp;nbsp; &amp;nbsp; &amp;nbsp; &amp;nbsp; -&lt;/font&gt;" style="rounded=1;whiteSpace=wrap;html=1;fontSize=18;rotation=90;" parent="1" vertex="1">
          <mxGeometry x="160" y="480" width="120" height="40" as="geometry" />
        </mxCell>
        <mxCell id="yQb2XTzOwnP5ZNW3T5DW-33" style="edgeStyle=orthogonalEdgeStyle;shape=link;rounded=0;orthogonalLoop=1;jettySize=auto;html=1;exitX=1;exitY=0.5;exitDx=0;exitDy=0;entryX=0;entryY=0.5;entryDx=0;entryDy=0;fontSize=24;" parent="1" source="yQb2XTzOwnP5ZNW3T5DW-27" target="yQb2XTzOwnP5ZNW3T5DW-26" edge="1">
          <mxGeometry relative="1" as="geometry" />
        </mxCell>
        <mxCell id="yQb2XTzOwnP5ZNW3T5DW-27" value="&lt;font style=&quot;font-size: 24px;&quot;&gt;+&amp;nbsp; &amp;nbsp; &amp;nbsp; &amp;nbsp; &amp;nbsp; -&lt;/font&gt;" style="rounded=1;whiteSpace=wrap;html=1;fontSize=18;rotation=90;" parent="1" vertex="1">
          <mxGeometry x="240" y="480" width="120" height="40" as="geometry" />
        </mxCell>
        <mxCell id="yQb2XTzOwnP5ZNW3T5DW-104" style="edgeStyle=orthogonalEdgeStyle;curved=1;rounded=0;orthogonalLoop=1;jettySize=auto;html=1;exitX=1;exitY=0.5;exitDx=0;exitDy=0;entryX=0;entryY=0.5;entryDx=0;entryDy=0;fontSize=18;elbow=vertical;" parent="1" source="yQb2XTzOwnP5ZNW3T5DW-28" target="yQb2XTzOwnP5ZNW3T5DW-74" edge="1">
          <mxGeometry relative="1" as="geometry" />
        </mxCell>
        <mxCell id="yQb2XTzOwnP5ZNW3T5DW-28" value="&lt;font style=&quot;font-size: 24px;&quot;&gt;+&amp;nbsp; &amp;nbsp; &amp;nbsp; &amp;nbsp; &amp;nbsp; -&lt;/font&gt;" style="rounded=1;whiteSpace=wrap;html=1;fontSize=18;rotation=-90;" parent="1" vertex="1">
          <mxGeometry x="240" y="680" width="120" height="40" as="geometry" />
        </mxCell>
        <mxCell id="yQb2XTzOwnP5ZNW3T5DW-39" style="edgeStyle=orthogonalEdgeStyle;shape=link;rounded=0;orthogonalLoop=1;jettySize=auto;html=1;exitX=1;exitY=0.5;exitDx=0;exitDy=0;entryX=0;entryY=0.5;entryDx=0;entryDy=0;fontSize=24;" parent="1" source="yQb2XTzOwnP5ZNW3T5DW-29" target="yQb2XTzOwnP5ZNW3T5DW-28" edge="1">
          <mxGeometry relative="1" as="geometry" />
        </mxCell>
        <mxCell id="yQb2XTzOwnP5ZNW3T5DW-29" value="&lt;font style=&quot;font-size: 24px;&quot;&gt;+&amp;nbsp; &amp;nbsp; &amp;nbsp; &amp;nbsp; &amp;nbsp; -&lt;/font&gt;" style="rounded=1;whiteSpace=wrap;html=1;fontSize=18;rotation=-90;" parent="1" vertex="1">
          <mxGeometry x="160" y="680" width="120" height="40" as="geometry" />
        </mxCell>
        <mxCell id="yQb2XTzOwnP5ZNW3T5DW-38" style="edgeStyle=orthogonalEdgeStyle;shape=link;rounded=0;orthogonalLoop=1;jettySize=auto;html=1;exitX=1;exitY=0.5;exitDx=0;exitDy=0;entryX=0;entryY=0.5;entryDx=0;entryDy=0;fontSize=24;" parent="1" source="yQb2XTzOwnP5ZNW3T5DW-30" target="yQb2XTzOwnP5ZNW3T5DW-29" edge="1">
          <mxGeometry relative="1" as="geometry" />
        </mxCell>
        <mxCell id="yQb2XTzOwnP5ZNW3T5DW-30" value="&lt;font style=&quot;font-size: 24px;&quot;&gt;+&amp;nbsp; &amp;nbsp; &amp;nbsp; &amp;nbsp; &amp;nbsp; -&lt;/font&gt;" style="rounded=1;whiteSpace=wrap;html=1;fontSize=18;rotation=-90;" parent="1" vertex="1">
          <mxGeometry x="80" y="680" width="120" height="40" as="geometry" />
        </mxCell>
        <mxCell id="yQb2XTzOwnP5ZNW3T5DW-37" style="edgeStyle=orthogonalEdgeStyle;shape=link;rounded=0;orthogonalLoop=1;jettySize=auto;html=1;exitX=1;exitY=0.5;exitDx=0;exitDy=0;entryX=0;entryY=0.5;entryDx=0;entryDy=0;fontSize=24;" parent="1" source="yQb2XTzOwnP5ZNW3T5DW-31" target="yQb2XTzOwnP5ZNW3T5DW-30" edge="1">
          <mxGeometry relative="1" as="geometry" />
        </mxCell>
        <mxCell id="yQb2XTzOwnP5ZNW3T5DW-31" value="&lt;font style=&quot;font-size: 24px;&quot;&gt;+&amp;nbsp; &amp;nbsp; &amp;nbsp; &amp;nbsp; &amp;nbsp; -&lt;/font&gt;" style="rounded=1;whiteSpace=wrap;html=1;fontSize=18;rotation=-90;" parent="1" vertex="1">
          <mxGeometry y="680" width="120" height="40" as="geometry" />
        </mxCell>
        <mxCell id="yQb2XTzOwnP5ZNW3T5DW-56" style="edgeStyle=orthogonalEdgeStyle;shape=link;rounded=0;orthogonalLoop=1;jettySize=auto;html=1;exitX=0;exitY=0.5;exitDx=0;exitDy=0;entryX=1;entryY=0.5;entryDx=0;entryDy=0;fontSize=24;" parent="1" source="yQb2XTzOwnP5ZNW3T5DW-40" target="yQb2XTzOwnP5ZNW3T5DW-41" edge="1">
          <mxGeometry relative="1" as="geometry" />
        </mxCell>
        <mxCell id="XG2Kc8SGQfTMG4fcbG-y-1" value="" style="edgeStyle=orthogonalEdgeStyle;curved=1;rounded=0;orthogonalLoop=1;jettySize=auto;html=1;exitX=1;exitY=0.5;exitDx=0;exitDy=0;entryX=0.5;entryY=1;entryDx=0;entryDy=0;" edge="1" parent="1" source="yQb2XTzOwnP5ZNW3T5DW-40" target="yQb2XTzOwnP5ZNW3T5DW-82">
          <mxGeometry relative="1" as="geometry">
            <Array as="points">
              <mxPoint x="660" y="220" />
              <mxPoint x="580" y="220" />
              <mxPoint x="580" y="350" />
              <mxPoint x="480" y="350" />
            </Array>
          </mxGeometry>
        </mxCell>
        <mxCell id="XG2Kc8SGQfTMG4fcbG-y-5" value="&lt;font style=&quot;font-size: 18px;&quot;&gt;B-&lt;/font&gt;" style="edgeLabel;html=1;align=center;verticalAlign=middle;resizable=0;points=[];" vertex="1" connectable="0" parent="XG2Kc8SGQfTMG4fcbG-y-1">
          <mxGeometry x="0.7073" y="-6" relative="1" as="geometry">
            <mxPoint x="-31" y="-13" as="offset" />
          </mxGeometry>
        </mxCell>
        <mxCell id="yQb2XTzOwnP5ZNW3T5DW-40" value="&lt;font style=&quot;font-size: 24px;&quot;&gt;+&amp;nbsp; &amp;nbsp; &amp;nbsp; &amp;nbsp; &amp;nbsp; B-&lt;/font&gt;" style="rounded=1;whiteSpace=wrap;html=1;fontSize=18;rotation=90;" parent="1" vertex="1">
          <mxGeometry x="600" y="80" width="120" height="40" as="geometry" />
        </mxCell>
        <mxCell id="yQb2XTzOwnP5ZNW3T5DW-57" style="edgeStyle=orthogonalEdgeStyle;shape=link;rounded=0;orthogonalLoop=1;jettySize=auto;html=1;exitX=0;exitY=0.5;exitDx=0;exitDy=0;entryX=1;entryY=0.5;entryDx=0;entryDy=0;fontSize=24;" parent="1" source="yQb2XTzOwnP5ZNW3T5DW-41" target="yQb2XTzOwnP5ZNW3T5DW-42" edge="1">
          <mxGeometry relative="1" as="geometry" />
        </mxCell>
        <mxCell id="yQb2XTzOwnP5ZNW3T5DW-41" value="&lt;font style=&quot;font-size: 24px;&quot;&gt;+&amp;nbsp; &amp;nbsp; &amp;nbsp; &amp;nbsp; &amp;nbsp; -&lt;/font&gt;" style="rounded=1;whiteSpace=wrap;html=1;fontSize=18;rotation=90;" parent="1" vertex="1">
          <mxGeometry x="680" y="80" width="120" height="40" as="geometry" />
        </mxCell>
        <mxCell id="yQb2XTzOwnP5ZNW3T5DW-58" style="edgeStyle=orthogonalEdgeStyle;shape=link;rounded=0;orthogonalLoop=1;jettySize=auto;html=1;exitX=0;exitY=0.5;exitDx=0;exitDy=0;entryX=1;entryY=0.5;entryDx=0;entryDy=0;fontSize=24;" parent="1" source="yQb2XTzOwnP5ZNW3T5DW-42" target="yQb2XTzOwnP5ZNW3T5DW-43" edge="1">
          <mxGeometry relative="1" as="geometry" />
        </mxCell>
        <mxCell id="yQb2XTzOwnP5ZNW3T5DW-42" value="&lt;font style=&quot;font-size: 24px;&quot;&gt;+&amp;nbsp; &amp;nbsp; &amp;nbsp; &amp;nbsp; &amp;nbsp; -&lt;/font&gt;" style="rounded=1;whiteSpace=wrap;html=1;fontSize=18;rotation=90;" parent="1" vertex="1">
          <mxGeometry x="760" y="80" width="120" height="40" as="geometry" />
        </mxCell>
        <mxCell id="yQb2XTzOwnP5ZNW3T5DW-59" style="edgeStyle=orthogonalEdgeStyle;shape=link;rounded=0;orthogonalLoop=1;jettySize=auto;html=1;exitX=0;exitY=0.5;exitDx=0;exitDy=0;entryX=1;entryY=0.5;entryDx=0;entryDy=0;fontSize=24;" parent="1" source="yQb2XTzOwnP5ZNW3T5DW-43" target="yQb2XTzOwnP5ZNW3T5DW-44" edge="1">
          <mxGeometry relative="1" as="geometry" />
        </mxCell>
        <mxCell id="yQb2XTzOwnP5ZNW3T5DW-43" value="&lt;font style=&quot;font-size: 24px;&quot;&gt;+&amp;nbsp; &amp;nbsp; &amp;nbsp; &amp;nbsp; &amp;nbsp; -&lt;/font&gt;" style="rounded=1;whiteSpace=wrap;html=1;fontSize=18;rotation=90;" parent="1" vertex="1">
          <mxGeometry x="840" y="80" width="120" height="40" as="geometry" />
        </mxCell>
        <mxCell id="yQb2XTzOwnP5ZNW3T5DW-60" style="edgeStyle=orthogonalEdgeStyle;shape=link;rounded=0;orthogonalLoop=1;jettySize=auto;html=1;exitX=0;exitY=0.5;exitDx=0;exitDy=0;entryX=1;entryY=0.5;entryDx=0;entryDy=0;fontSize=24;" parent="1" source="yQb2XTzOwnP5ZNW3T5DW-44" target="yQb2XTzOwnP5ZNW3T5DW-45" edge="1">
          <mxGeometry relative="1" as="geometry" />
        </mxCell>
        <mxCell id="yQb2XTzOwnP5ZNW3T5DW-44" value="&lt;font style=&quot;font-size: 24px;&quot;&gt;+&amp;nbsp; &amp;nbsp; &amp;nbsp; &amp;nbsp; &amp;nbsp; -&lt;/font&gt;" style="rounded=1;whiteSpace=wrap;html=1;fontSize=18;rotation=-90;" parent="1" vertex="1">
          <mxGeometry x="840" y="280" width="120" height="40" as="geometry" />
        </mxCell>
        <mxCell id="yQb2XTzOwnP5ZNW3T5DW-61" style="edgeStyle=orthogonalEdgeStyle;shape=link;rounded=0;orthogonalLoop=1;jettySize=auto;html=1;exitX=0;exitY=0.5;exitDx=0;exitDy=0;entryX=1;entryY=0.5;entryDx=0;entryDy=0;fontSize=24;" parent="1" source="yQb2XTzOwnP5ZNW3T5DW-45" target="yQb2XTzOwnP5ZNW3T5DW-46" edge="1">
          <mxGeometry relative="1" as="geometry" />
        </mxCell>
        <mxCell id="yQb2XTzOwnP5ZNW3T5DW-45" value="&lt;font style=&quot;font-size: 24px;&quot;&gt;+&amp;nbsp; &amp;nbsp; &amp;nbsp; &amp;nbsp; &amp;nbsp; -&lt;/font&gt;" style="rounded=1;whiteSpace=wrap;html=1;fontSize=18;rotation=-90;" parent="1" vertex="1">
          <mxGeometry x="760" y="280" width="120" height="40" as="geometry" />
        </mxCell>
        <mxCell id="yQb2XTzOwnP5ZNW3T5DW-62" style="edgeStyle=orthogonalEdgeStyle;shape=link;rounded=0;orthogonalLoop=1;jettySize=auto;html=1;exitX=0;exitY=0.5;exitDx=0;exitDy=0;entryX=1;entryY=0.5;entryDx=0;entryDy=0;fontSize=24;" parent="1" source="yQb2XTzOwnP5ZNW3T5DW-46" target="yQb2XTzOwnP5ZNW3T5DW-47" edge="1">
          <mxGeometry relative="1" as="geometry">
            <Array as="points">
              <mxPoint x="740" y="380" />
              <mxPoint x="700" y="380" />
              <mxPoint x="700" y="220" />
              <mxPoint x="660" y="220" />
            </Array>
          </mxGeometry>
        </mxCell>
        <mxCell id="yQb2XTzOwnP5ZNW3T5DW-46" value="&lt;font style=&quot;font-size: 24px;&quot;&gt;+&amp;nbsp; &amp;nbsp; &amp;nbsp; &amp;nbsp; &amp;nbsp; -&lt;/font&gt;" style="rounded=1;whiteSpace=wrap;html=1;fontSize=18;rotation=-90;" parent="1" vertex="1">
          <mxGeometry x="680" y="280" width="120" height="40" as="geometry" />
        </mxCell>
        <mxCell id="yQb2XTzOwnP5ZNW3T5DW-63" style="edgeStyle=orthogonalEdgeStyle;shape=link;rounded=0;orthogonalLoop=1;jettySize=auto;html=1;exitX=0;exitY=0.5;exitDx=0;exitDy=0;entryX=1;entryY=0.5;entryDx=0;entryDy=0;fontSize=24;" parent="1" source="yQb2XTzOwnP5ZNW3T5DW-47" target="yQb2XTzOwnP5ZNW3T5DW-48" edge="1">
          <mxGeometry relative="1" as="geometry" />
        </mxCell>
        <mxCell id="yQb2XTzOwnP5ZNW3T5DW-47" value="&lt;font style=&quot;font-size: 24px;&quot;&gt;+&amp;nbsp; &amp;nbsp; &amp;nbsp; &amp;nbsp; &amp;nbsp; -&lt;/font&gt;" style="rounded=1;whiteSpace=wrap;html=1;fontSize=18;rotation=-90;" parent="1" vertex="1">
          <mxGeometry x="600" y="280" width="120" height="40" as="geometry" />
        </mxCell>
        <mxCell id="yQb2XTzOwnP5ZNW3T5DW-64" style="edgeStyle=orthogonalEdgeStyle;shape=link;rounded=0;orthogonalLoop=1;jettySize=auto;html=1;exitX=0;exitY=0.5;exitDx=0;exitDy=0;entryX=1;entryY=0.5;entryDx=0;entryDy=0;fontSize=24;" parent="1" source="yQb2XTzOwnP5ZNW3T5DW-48" target="yQb2XTzOwnP5ZNW3T5DW-49" edge="1">
          <mxGeometry relative="1" as="geometry" />
        </mxCell>
        <mxCell id="yQb2XTzOwnP5ZNW3T5DW-48" value="&lt;font style=&quot;font-size: 24px;&quot;&gt;+&amp;nbsp; &amp;nbsp; &amp;nbsp; &amp;nbsp; &amp;nbsp; -&lt;/font&gt;" style="rounded=1;whiteSpace=wrap;html=1;fontSize=18;rotation=90;" parent="1" vertex="1">
          <mxGeometry x="600" y="480" width="120" height="40" as="geometry" />
        </mxCell>
        <mxCell id="yQb2XTzOwnP5ZNW3T5DW-65" style="edgeStyle=orthogonalEdgeStyle;shape=link;rounded=0;orthogonalLoop=1;jettySize=auto;html=1;exitX=0;exitY=0.5;exitDx=0;exitDy=0;entryX=1;entryY=0.5;entryDx=0;entryDy=0;fontSize=24;" parent="1" source="yQb2XTzOwnP5ZNW3T5DW-49" target="yQb2XTzOwnP5ZNW3T5DW-50" edge="1">
          <mxGeometry relative="1" as="geometry" />
        </mxCell>
        <mxCell id="yQb2XTzOwnP5ZNW3T5DW-49" value="&lt;font style=&quot;font-size: 24px;&quot;&gt;+&amp;nbsp; &amp;nbsp; &amp;nbsp; &amp;nbsp; &amp;nbsp; -&lt;/font&gt;" style="rounded=1;whiteSpace=wrap;html=1;fontSize=18;rotation=90;" parent="1" vertex="1">
          <mxGeometry x="680" y="480" width="120" height="40" as="geometry" />
        </mxCell>
        <mxCell id="yQb2XTzOwnP5ZNW3T5DW-66" style="edgeStyle=orthogonalEdgeStyle;shape=link;rounded=0;orthogonalLoop=1;jettySize=auto;html=1;exitX=0;exitY=0.5;exitDx=0;exitDy=0;entryX=0.994;entryY=0.582;entryDx=0;entryDy=0;entryPerimeter=0;fontSize=24;" parent="1" source="yQb2XTzOwnP5ZNW3T5DW-50" target="yQb2XTzOwnP5ZNW3T5DW-51" edge="1">
          <mxGeometry relative="1" as="geometry" />
        </mxCell>
        <mxCell id="yQb2XTzOwnP5ZNW3T5DW-50" value="&lt;font style=&quot;font-size: 24px;&quot;&gt;+&amp;nbsp; &amp;nbsp; &amp;nbsp; &amp;nbsp; &amp;nbsp; -&lt;/font&gt;" style="rounded=1;whiteSpace=wrap;html=1;fontSize=18;rotation=90;" parent="1" vertex="1">
          <mxGeometry x="760" y="480" width="120" height="40" as="geometry" />
        </mxCell>
        <mxCell id="yQb2XTzOwnP5ZNW3T5DW-67" style="edgeStyle=orthogonalEdgeStyle;shape=link;rounded=0;orthogonalLoop=1;jettySize=auto;html=1;exitX=0;exitY=0.5;exitDx=0;exitDy=0;entryX=1;entryY=0.5;entryDx=0;entryDy=0;fontSize=24;" parent="1" source="yQb2XTzOwnP5ZNW3T5DW-51" target="yQb2XTzOwnP5ZNW3T5DW-52" edge="1">
          <mxGeometry relative="1" as="geometry" />
        </mxCell>
        <mxCell id="yQb2XTzOwnP5ZNW3T5DW-51" value="&lt;font style=&quot;font-size: 24px;&quot;&gt;+&amp;nbsp; &amp;nbsp; &amp;nbsp; &amp;nbsp; &amp;nbsp; -&lt;/font&gt;" style="rounded=1;whiteSpace=wrap;html=1;fontSize=18;rotation=90;" parent="1" vertex="1">
          <mxGeometry x="840" y="480" width="120" height="40" as="geometry" />
        </mxCell>
        <mxCell id="yQb2XTzOwnP5ZNW3T5DW-68" style="edgeStyle=orthogonalEdgeStyle;shape=link;rounded=0;orthogonalLoop=1;jettySize=auto;html=1;exitX=0;exitY=0.5;exitDx=0;exitDy=0;entryX=1;entryY=0.5;entryDx=0;entryDy=0;fontSize=24;" parent="1" source="yQb2XTzOwnP5ZNW3T5DW-52" target="yQb2XTzOwnP5ZNW3T5DW-53" edge="1">
          <mxGeometry relative="1" as="geometry" />
        </mxCell>
        <mxCell id="yQb2XTzOwnP5ZNW3T5DW-52" value="&lt;font style=&quot;font-size: 24px;&quot;&gt;+&amp;nbsp; &amp;nbsp; &amp;nbsp; &amp;nbsp; &amp;nbsp; -&lt;/font&gt;" style="rounded=1;whiteSpace=wrap;html=1;fontSize=18;rotation=-90;" parent="1" vertex="1">
          <mxGeometry x="840" y="680" width="120" height="40" as="geometry" />
        </mxCell>
        <mxCell id="yQb2XTzOwnP5ZNW3T5DW-69" style="edgeStyle=orthogonalEdgeStyle;shape=link;rounded=0;orthogonalLoop=1;jettySize=auto;html=1;exitX=0;exitY=0.5;exitDx=0;exitDy=0;entryX=1;entryY=0.5;entryDx=0;entryDy=0;fontSize=24;" parent="1" source="yQb2XTzOwnP5ZNW3T5DW-53" target="yQb2XTzOwnP5ZNW3T5DW-54" edge="1">
          <mxGeometry relative="1" as="geometry" />
        </mxCell>
        <mxCell id="yQb2XTzOwnP5ZNW3T5DW-53" value="&lt;font style=&quot;font-size: 24px;&quot;&gt;+&amp;nbsp; &amp;nbsp; &amp;nbsp; &amp;nbsp; &amp;nbsp; -&lt;/font&gt;" style="rounded=1;whiteSpace=wrap;html=1;fontSize=18;rotation=-90;" parent="1" vertex="1">
          <mxGeometry x="760" y="680" width="120" height="40" as="geometry" />
        </mxCell>
        <mxCell id="yQb2XTzOwnP5ZNW3T5DW-70" style="edgeStyle=orthogonalEdgeStyle;shape=link;rounded=0;orthogonalLoop=1;jettySize=auto;html=1;exitX=0;exitY=0.5;exitDx=0;exitDy=0;entryX=1;entryY=0.5;entryDx=0;entryDy=0;fontSize=24;" parent="1" source="yQb2XTzOwnP5ZNW3T5DW-54" target="yQb2XTzOwnP5ZNW3T5DW-55" edge="1">
          <mxGeometry relative="1" as="geometry" />
        </mxCell>
        <mxCell id="yQb2XTzOwnP5ZNW3T5DW-54" value="&lt;font style=&quot;font-size: 24px;&quot;&gt;+&amp;nbsp; &amp;nbsp; &amp;nbsp; &amp;nbsp; &amp;nbsp; -&lt;/font&gt;" style="rounded=1;whiteSpace=wrap;html=1;fontSize=18;rotation=-90;" parent="1" vertex="1">
          <mxGeometry x="680" y="680" width="120" height="40" as="geometry" />
        </mxCell>
        <mxCell id="yQb2XTzOwnP5ZNW3T5DW-105" style="edgeStyle=orthogonalEdgeStyle;curved=1;rounded=0;orthogonalLoop=1;jettySize=auto;html=1;exitX=0;exitY=0.5;exitDx=0;exitDy=0;entryX=1;entryY=0.5;entryDx=0;entryDy=0;fontSize=18;elbow=vertical;" parent="1" source="yQb2XTzOwnP5ZNW3T5DW-55" target="yQb2XTzOwnP5ZNW3T5DW-74" edge="1">
          <mxGeometry relative="1" as="geometry" />
        </mxCell>
        <mxCell id="yQb2XTzOwnP5ZNW3T5DW-55" value="&lt;font style=&quot;font-size: 24px;&quot;&gt;+&amp;nbsp; &amp;nbsp; &amp;nbsp; &amp;nbsp; &amp;nbsp; -&lt;/font&gt;" style="rounded=1;whiteSpace=wrap;html=1;fontSize=18;rotation=-90;" parent="1" vertex="1">
          <mxGeometry x="600" y="680" width="120" height="40" as="geometry" />
        </mxCell>
        <mxCell id="yQb2XTzOwnP5ZNW3T5DW-106" style="edgeStyle=orthogonalEdgeStyle;curved=1;rounded=0;orthogonalLoop=1;jettySize=auto;html=1;exitX=0.5;exitY=0;exitDx=0;exitDy=0;entryX=0.5;entryY=1;entryDx=0;entryDy=0;entryPerimeter=0;fontSize=18;elbow=vertical;" parent="1" source="yQb2XTzOwnP5ZNW3T5DW-74" target="yQb2XTzOwnP5ZNW3T5DW-100" edge="1">
          <mxGeometry relative="1" as="geometry">
            <Array as="points">
              <mxPoint x="475" y="720" />
              <mxPoint x="450" y="720" />
              <mxPoint x="450" y="660" />
              <mxPoint x="475" y="660" />
            </Array>
          </mxGeometry>
        </mxCell>
        <mxCell id="yQb2XTzOwnP5ZNW3T5DW-113" value="Neutral" style="edgeLabel;html=1;align=center;verticalAlign=middle;resizable=0;points=[];fontSize=18;" parent="yQb2XTzOwnP5ZNW3T5DW-106" vertex="1" connectable="0">
          <mxGeometry x="0.7886" y="6" relative="1" as="geometry">
            <mxPoint x="41" y="1" as="offset" />
          </mxGeometry>
        </mxCell>
        <mxCell id="yQb2XTzOwnP5ZNW3T5DW-74" value="Bus Bar" style="rounded=0;whiteSpace=wrap;html=1;fontSize=24;" parent="1" vertex="1">
          <mxGeometry x="415" y="740" width="120" height="30" as="geometry" />
        </mxCell>
        <mxCell id="yQb2XTzOwnP5ZNW3T5DW-93" style="edgeStyle=orthogonalEdgeStyle;curved=1;rounded=0;orthogonalLoop=1;jettySize=auto;html=1;exitX=0;exitY=1;exitDx=0;exitDy=0;entryX=0;entryY=0;entryDx=0;entryDy=0;fontSize=24;" parent="1" source="yQb2XTzOwnP5ZNW3T5DW-78" target="yQb2XTzOwnP5ZNW3T5DW-82" edge="1">
          <mxGeometry relative="1" as="geometry">
            <Array as="points">
              <mxPoint x="400" y="160" />
              <mxPoint x="400" y="240" />
            </Array>
          </mxGeometry>
        </mxCell>
        <mxCell id="yQb2XTzOwnP5ZNW3T5DW-94" value="+" style="edgeLabel;html=1;align=center;verticalAlign=middle;resizable=0;points=[];fontSize=18;" parent="yQb2XTzOwnP5ZNW3T5DW-93" vertex="1" connectable="0">
          <mxGeometry x="-0.7611" y="5" relative="1" as="geometry">
            <mxPoint x="18" y="9" as="offset" />
          </mxGeometry>
        </mxCell>
        <mxCell id="yQb2XTzOwnP5ZNW3T5DW-96" value="+" style="edgeLabel;html=1;align=center;verticalAlign=middle;resizable=0;points=[];fontSize=18;" parent="yQb2XTzOwnP5ZNW3T5DW-93" vertex="1" connectable="0">
          <mxGeometry x="0.85" y="-10" relative="1" as="geometry">
            <mxPoint x="20" y="7" as="offset" />
          </mxGeometry>
        </mxCell>
        <mxCell id="yQb2XTzOwnP5ZNW3T5DW-114" value="+" style="edgeLabel;html=1;align=center;verticalAlign=middle;resizable=0;points=[];fontSize=18;" parent="yQb2XTzOwnP5ZNW3T5DW-93" vertex="1" connectable="0">
          <mxGeometry x="0.8668" y="-1" relative="1" as="geometry">
            <mxPoint x="11" y="-11" as="offset" />
          </mxGeometry>
        </mxCell>
        <mxCell id="XG2Kc8SGQfTMG4fcbG-y-4" style="edgeStyle=orthogonalEdgeStyle;curved=1;rounded=0;orthogonalLoop=1;jettySize=auto;html=1;exitX=1;exitY=1;exitDx=0;exitDy=0;entryX=1;entryY=0;entryDx=0;entryDy=0;elbow=vertical;" edge="1" parent="1" source="yQb2XTzOwnP5ZNW3T5DW-78" target="yQb2XTzOwnP5ZNW3T5DW-82">
          <mxGeometry relative="1" as="geometry">
            <Array as="points">
              <mxPoint x="560" y="160" />
              <mxPoint x="560" y="240" />
            </Array>
          </mxGeometry>
        </mxCell>
        <mxCell id="XG2Kc8SGQfTMG4fcbG-y-8" value="-" style="edgeLabel;html=1;align=center;verticalAlign=middle;resizable=0;points=[];fontSize=18;" vertex="1" connectable="0" parent="XG2Kc8SGQfTMG4fcbG-y-4">
          <mxGeometry x="0.5875" y="-6" relative="1" as="geometry">
            <mxPoint x="-39" y="-3" as="offset" />
          </mxGeometry>
        </mxCell>
        <mxCell id="XG2Kc8SGQfTMG4fcbG-y-11" value="-" style="edgeLabel;html=1;align=center;verticalAlign=middle;resizable=0;points=[];fontSize=18;" vertex="1" connectable="0" parent="XG2Kc8SGQfTMG4fcbG-y-4">
          <mxGeometry x="-0.9167" y="-1" relative="1" as="geometry">
            <mxPoint x="-10" y="12" as="offset" />
          </mxGeometry>
        </mxCell>
        <mxCell id="yQb2XTzOwnP5ZNW3T5DW-78" value="&lt;font style=&quot;font-size: 18px;&quot;&gt;2P Breaker&lt;/font&gt;" style="rounded=0;whiteSpace=wrap;html=1;fontSize=24;" parent="1" vertex="1">
          <mxGeometry x="440" y="80" width="80" height="80" as="geometry" />
        </mxCell>
        <mxCell id="yQb2XTzOwnP5ZNW3T5DW-107" style="edgeStyle=orthogonalEdgeStyle;curved=1;rounded=0;orthogonalLoop=1;jettySize=auto;html=1;exitX=1;exitY=1;exitDx=0;exitDy=0;entryX=0;entryY=0;entryDx=90;entryDy=21.60708831721044;entryPerimeter=0;fontSize=18;elbow=vertical;" parent="1" source="yQb2XTzOwnP5ZNW3T5DW-82" target="yQb2XTzOwnP5ZNW3T5DW-100" edge="1">
          <mxGeometry relative="1" as="geometry">
            <Array as="points">
              <mxPoint x="570" y="310" />
              <mxPoint x="570" y="432" />
            </Array>
          </mxGeometry>
        </mxCell>
        <mxCell id="yQb2XTzOwnP5ZNW3T5DW-110" value="-" style="edgeLabel;html=1;align=center;verticalAlign=middle;resizable=0;points=[];fontSize=18;" parent="yQb2XTzOwnP5ZNW3T5DW-107" vertex="1" connectable="0">
          <mxGeometry x="-0.8717" y="-2" relative="1" as="geometry">
            <mxPoint x="-16" y="10" as="offset" />
          </mxGeometry>
        </mxCell>
        <mxCell id="yQb2XTzOwnP5ZNW3T5DW-111" value="-" style="edgeLabel;html=1;align=center;verticalAlign=middle;resizable=0;points=[];fontSize=18;" parent="yQb2XTzOwnP5ZNW3T5DW-107" vertex="1" connectable="0">
          <mxGeometry x="0.7976" y="3" relative="1" as="geometry">
            <mxPoint x="-22" y="-22" as="offset" />
          </mxGeometry>
        </mxCell>
        <mxCell id="yQb2XTzOwnP5ZNW3T5DW-108" style="edgeStyle=orthogonalEdgeStyle;curved=1;rounded=0;orthogonalLoop=1;jettySize=auto;html=1;exitX=0;exitY=1;exitDx=0;exitDy=0;entryX=0;entryY=0;entryDx=0;entryDy=21.60708831721044;entryPerimeter=0;fontSize=18;elbow=vertical;" parent="1" source="yQb2XTzOwnP5ZNW3T5DW-82" target="yQb2XTzOwnP5ZNW3T5DW-100" edge="1">
          <mxGeometry relative="1" as="geometry">
            <Array as="points">
              <mxPoint x="380" y="310" />
              <mxPoint x="380" y="432" />
            </Array>
          </mxGeometry>
        </mxCell>
        <mxCell id="yQb2XTzOwnP5ZNW3T5DW-109" value="+" style="edgeLabel;html=1;align=center;verticalAlign=middle;resizable=0;points=[];fontSize=18;" parent="yQb2XTzOwnP5ZNW3T5DW-108" vertex="1" connectable="0">
          <mxGeometry x="-0.8338" y="-6" relative="1" as="geometry">
            <mxPoint x="19" y="19" as="offset" />
          </mxGeometry>
        </mxCell>
        <mxCell id="yQb2XTzOwnP5ZNW3T5DW-112" value="+" style="edgeLabel;html=1;align=center;verticalAlign=middle;resizable=0;points=[];fontSize=18;" parent="yQb2XTzOwnP5ZNW3T5DW-108" vertex="1" connectable="0">
          <mxGeometry x="0.9028" y="3" relative="1" as="geometry">
            <mxPoint x="12" y="-9" as="offset" />
          </mxGeometry>
        </mxCell>
        <mxCell id="XG2Kc8SGQfTMG4fcbG-y-2" style="edgeStyle=orthogonalEdgeStyle;curved=1;rounded=0;orthogonalLoop=1;jettySize=auto;html=1;exitX=0.5;exitY=0;exitDx=0;exitDy=0;entryX=1;entryY=0;entryDx=0;entryDy=0;" edge="1" parent="1" source="yQb2XTzOwnP5ZNW3T5DW-82" target="yQb2XTzOwnP5ZNW3T5DW-78">
          <mxGeometry relative="1" as="geometry">
            <mxPoint x="590" y="120" as="targetPoint" />
            <Array as="points">
              <mxPoint x="480" y="210" />
              <mxPoint x="610" y="210" />
              <mxPoint x="610" y="20" />
              <mxPoint x="520" y="20" />
            </Array>
          </mxGeometry>
        </mxCell>
        <mxCell id="XG2Kc8SGQfTMG4fcbG-y-6" value="B-" style="edgeLabel;html=1;align=center;verticalAlign=middle;resizable=0;points=[];fontSize=18;" vertex="1" connectable="0" parent="XG2Kc8SGQfTMG4fcbG-y-2">
          <mxGeometry x="0.9333" relative="1" as="geometry">
            <mxPoint x="-20" as="offset" />
          </mxGeometry>
        </mxCell>
        <mxCell id="XG2Kc8SGQfTMG4fcbG-y-7" value="B-" style="edgeLabel;html=1;align=center;verticalAlign=middle;resizable=0;points=[];fontSize=18;" vertex="1" connectable="0" parent="XG2Kc8SGQfTMG4fcbG-y-2">
          <mxGeometry x="-0.7875" y="-10" relative="1" as="geometry">
            <mxPoint x="-31" as="offset" />
          </mxGeometry>
        </mxCell>
        <mxCell id="yQb2XTzOwnP5ZNW3T5DW-82" value="&lt;font style=&quot;font-size: 18px;&quot;&gt;3 way terminal&lt;/font&gt;" style="whiteSpace=wrap;html=1;fontSize=24;rounded=0;" parent="1" vertex="1">
          <mxGeometry x="440" y="240" width="80" height="70" as="geometry" />
        </mxCell>
        <mxCell id="yQb2XTzOwnP5ZNW3T5DW-100" value="UPS" style="html=1;whiteSpace=wrap;shape=isoCube2;backgroundOutline=1;isoAngle=15;fontSize=18;" parent="1" vertex="1">
          <mxGeometry x="430" y="410" width="90" height="200" as="geometry" />
        </mxCell>
      </root>
    </mxGraphModel>
  </diagram>
</mxfile>
